<?xml version="1.0" encoding="UTF-8"?>
<!-- Generated by jsxcad -->
<!DOCTYPE svg PUBLIC "-//W3C//DTD SVG 1.1 Tiny//EN" "http://www.w3.org/Graphics/SVG/1.1/DTD/svg11-tiny.dtd">
<svg baseProfile="tiny" height="11.000000000000007mm" width="11.000000000000007mm" viewBox="0 0 11.000000000000007 11.000000000000007" version="1.1" stroke="black" stroke-width=".1" fill="none" xmlns="http://www.w3.org/2000/svg">
<path fill="#000000" stroke="#000000" d="M0 11 L0 0 L11 0 L11 11 M0.50642 5.24675 L0.55766 6.25714 L0.81124 7.23653 L1.25678 8.14482 L1.87604 8.94483 L2.64366 9.60382 L3.52822 10.09479 L4.49351 10.39765 L5.5 10.5 L6.50649 10.39765 L7.47178 10.09479 L8.35634 9.60382 L9.02758 9.02758 L9.12396 8.94483 L9.74322 8.14482 L10.18876 7.23653 L10.44234 6.25714 L10.49358 5.24675 L10.34039 4.24674 L9.98902 3.29803 L9.45388 2.43947 L8.75686 1.70621 L7.92651 1.12827 L6.99682 0.7293 L6.00584 0.52565 L4.99416 0.52565 L4.00318 0.7293 L3.07349 1.12827 L2.24314 1.70621 L1.98148 1.98148 L1.54612 2.43947 L1.01098 3.29803 L0.65961 4.24674 z"/>
<path fill="#000000" stroke="#000000" d="M11 3.552713678800501e-15 L11 3.552713678800501e-15 L0 3.552713678800501e-15 L0 3.552713678800501e-15 z"/>
<path fill="#000000" stroke="#000000" d="M11.000000000000004 11 L11.000000000000004 11 L11.000000000000004 0 L11.000000000000004 0 z"/>
<path fill="#000000" stroke="#000000" d="M6.506489997051149 10.39764997100158 L6.506489997051149 10.39764997100158 L5.5 10.500000000000004 L5.5 10.500000000000004 z"/>
<path fill="#000000" stroke="#000000" d="M0 11.000000000000004 L0 11.000000000000004 L11 11.000000000000004 L11 11.000000000000004 z"/>
<path fill="#000000" stroke="#000000" d="M4.49351000294885 10.39764997100158 L4.49351000294885 10.39764997100158 L5.499999999999999 10.500000000000002 L5.499999999999999 10.500000000000002 z"/>
<path fill="#000000" stroke="#000000" d="M3.528220333960911 10.09478893558962 L3.528220333960911 10.09478893558962 L4.493509850854202 10.397650475362026 L4.493509850854202 10.397650475362026 z"/>
<path fill="#000000" stroke="#000000" d="M2.6436609322471187 9.603818320412492 L2.6436609322471187 9.603818320412492 L3.5282205702856264 10.094788972542155 L3.5282205702856264 10.094788972542155 z"/>
<path fill="#000000" stroke="#000000" d="M1.8760360587550797 8.94483459100081 L1.8760360587550797 8.94483459100081 L2.6436609245636036 9.603818923012312 L2.6436609245636036 9.603818923012312 z"/>
<path fill="#000000" stroke="#000000" d="M1.2567791699156041 8.144820642533148 L1.2567791699156041 8.144820642533148 L1.8760353142844133 8.944833627013839 L1.8760353142844133 8.944833627013839 z"/>
<path fill="#000000" stroke="#000000" d="M0.8112409444927232 7.236529536704201 L0.8112409444927232 7.236529536704201 L1.256778941812152 8.144820519065918 L1.256778941812152 8.144820519065918 z"/>
<path fill="#000000" stroke="#000000" d="M0.5576584387932249 6.257140079175446 L0.5576584387932249 6.257140079175446 L0.5064172604320839 5.246750138935159 L0.5064172604320839 5.246750138935159 z"/>
<path fill="#000000" stroke="#000000" d="M0.5576587501854212 6.257140323599414 L0.5576587501854212 6.257140323599414 L0.8112402872661073 7.236529925621651 L0.8112402872661073 7.236529925621651 z"/>
<path fill="#000000" stroke="#000000" d="M3.552713678800501e-15 11 L3.552713678800501e-15 11 L3.552713678800501e-15 0 L3.552713678800501e-15 0 z"/>
<path fill="#000000" stroke="#000000" d="M0.6596139062987728 4.24674059842296 L0.6596139062987728 4.24674059842296 L0.5064181443404406 5.246749715723411 L0.5064181443404406 5.246749715723411 z"/>
<path fill="#000000" stroke="#000000" d="M1.0109773807627613 3.2980290299410466 L1.0109773807627613 3.2980290299410466 L0.6596130075063443 4.246741113858039 L0.6596130075063443 4.246741113858039 z"/>
<path fill="#000000" stroke="#000000" d="M1.5461209864554741 2.4394706148623984 L1.5461209864554741 2.4394706148623984 L1.0109777168408225 3.298028576896003 L1.0109777168408225 3.298028576896003 z"/>
<path fill="#000000" stroke="#000000" d="M2.243138425732461 1.7062085035471168 L2.243138425732461 1.7062085035471168 L1.9814765100271416 1.9814766825334218 L1.5461207345403174 2.4394706982326375 L1.5461207345403174 2.4394706982326375 L1.9814765100271416 1.9814766825334218 z"/>
<path fill="#000000" stroke="#000000" d="M3.0734886166621807 1.1282680125043212 L3.0734886166621807 1.1282680125043212 L2.24313892468579 1.7062084550539167 L2.24313892468579 1.7062084550539167 z"/>
<path fill="#000000" stroke="#000000" d="M4.003182029350451 0.7293047289457616 L4.003182029350451 0.7293047289457616 L3.073488912692312 1.1282674662734684 L3.073488912692312 1.1282674662734684 z"/>
<path fill="#000000" stroke="#000000" d="M4.994160601824505 0.5256529285119519 L4.994160601824505 0.5256529285119519 L4.003180910797883 0.7293044319938199 L4.003180910797883 0.7293044319938199 z"/>
<path fill="#000000" stroke="#000000" d="M6.005839999999999 0.5256533830405282 L6.005839999999999 0.5256533830405282 L4.994159999999999 0.5256533830405274 L4.994159999999999 0.5256533830405274 z"/>
<path fill="#000000" stroke="#000000" d="M6.996819089202116 0.729304431993818 L6.996819089202116 0.729304431993818 L6.005839398175495 0.5256529285119503 L6.005839398175495 0.5256529285119503 z"/>
<path fill="#000000" stroke="#000000" d="M7.926511087307688 1.1282674662734666 L7.926511087307688 1.1282674662734666 L6.996817970649549 0.729304728945758 L6.996817970649549 0.729304728945758 z"/>
<path fill="#000000" stroke="#000000" d="M8.75686107531421 1.7062084550539132 L8.75686107531421 1.7062084550539132 L7.926511383337822 1.1282680125043176 L7.926511383337822 1.1282680125043176 z"/>
<path fill="#000000" stroke="#000000" d="M9.453879265459685 2.4394706982326335 L9.453879265459685 2.4394706982326335 L8.756861574267543 1.7062085035471124 L8.756861574267543 1.7062085035471124 z"/>
<path fill="#000000" stroke="#000000" d="M9.989022283159182 3.2980285768959994 L9.989022283159182 3.2980285768959994 L9.45387901354453 2.439470614862395 L9.45387901354453 2.439470614862395 z"/>
<path fill="#000000" stroke="#000000" d="M10.340386992493661 4.246741113858036 L10.340386992493661 4.246741113858036 L9.989022619237245 3.298029029941044 L9.989022619237245 3.298029029941044 z"/>
<path fill="#000000" stroke="#000000" d="M10.493581855659565 5.24674971572341 L10.493581855659565 5.24674971572341 L10.340386093701234 4.246740598422959 L10.340386093701234 4.246740598422959 z"/>
<path fill="#000000" stroke="#000000" d="M10.442341561206781 6.257140079175446 L10.442341561206781 6.257140079175446 L10.493582739567922 5.24675013893516 L10.493582739567922 5.24675013893516 z"/>
<path fill="#000000" stroke="#000000" d="M10.188759712733898 7.236529925621653 L10.188759712733898 7.236529925621653 L10.442341249814584 6.257140323599415 L10.442341249814584 6.257140323599415 z"/>
<path fill="#000000" stroke="#000000" d="M9.743221058187853 8.144820519065922 L9.743221058187853 8.144820519065922 L10.188759055507282 7.236529536704203 L10.188759055507282 7.236529536704203 z"/>
<path fill="#000000" stroke="#000000" d="M9.12396468571559 8.944833627013844 L9.12396468571559 8.944833627013844 L9.7432208300844 8.144820642533151 L9.7432208300844 8.144820642533151 z"/>
<path fill="#000000" stroke="#000000" d="M8.356339075436397 9.603818923012314 L8.356339075436397 9.603818923012314 L9.0275787597279 9.027578555255934 L9.123963941244922 8.944834591000813 L9.123963941244922 8.944834591000813 L9.0275787597279 9.027578555255934 z"/>
<path fill="#000000" stroke="#000000" d="M7.471779429714375 10.094788972542158 L7.471779429714375 10.094788972542158 L8.35633906775288 9.603818320412495 L8.35633906775288 9.603818320412495 z"/>
<path fill="#000000" stroke="#000000" d="M7.4717796660390885 10.094788935589621 L7.4717796660390885 10.094788935589621 L6.506490149145798 10.39765047536203 L6.506490149145798 10.39765047536203 z"/>
<path fill="#000000" stroke="#000000" d="M0 0 L0 11 L11 11 L11 0 M7.47178 10.09479 L6.50649 10.39765 L5.5 10.5 L4.49351 10.39765 L3.52822 10.09479 L2.64366 9.60382 L1.87604 8.94483 L1.25678 8.14482 L0.81124 7.23653 L0.55766 6.25714 L0.50642 5.24675 L0.65961 4.24674 L1.01098 3.29803 L1.54612 2.43947 L1.98148 1.98148 L2.24314 1.70621 L3.07349 1.12827 L4.00318 0.7293 L4.99416 0.52565 L6.00584 0.52565 L6.99682 0.7293 L7.92651 1.12827 L8.75686 1.70621 L9.45388 2.43947 L9.98902 3.29803 L10.34039 4.24674 L10.49358 5.24675 L10.44234 6.25714 L10.18876 7.23653 L9.74322 8.14482 L9.12396 8.94483 L9.02758 9.02758 L8.35634 9.60382 z"/>
</svg>